<?xml version="1.0" encoding="utf-8"?>
<!-- Generator: Adobe Illustrator 22.0.1, SVG Export Plug-In . SVG Version: 6.00 Build 0)  -->
<svg version="1.1" id="Layer_1" xmlns="http://www.w3.org/2000/svg" xmlns:xlink="http://www.w3.org/1999/xlink" x="0px" y="0px"
	 viewBox="0 0 189.5 187.2" style="enable-background:new 0 0 189.5 187.2;" xml:space="preserve">
<style type="text/css">
	.st0{fill:#E7F0FC;enable-background:new    ;}
</style>
<g>
	<path class="st0" d="M120,79.5c-2.5,2.4-4.8,1.9-5.8,1.4c-1.4-0.6-1.7-1-2.7-1.9c0,0,0,0-0.1-0.1c-2.5-2.5-6.6-2.5-9.2,0l-8,8
		c-2.5,2.5-6.6,2.5-9.2,0c-2.5-2.5-2.5-6.6,0-9.2l26.3-26.3c2.4-2.4,2.5-6.3,0.3-8.8l0,0c-1.1-1.3-1.6-1.5-2.3-3.1
		c-0.5-1.1-0.9-3.3,1.4-5.8l9.7-9.7c2.5-2.5,2.5-6.6,0-9.2c-2.5-2.5-6.6-2.5-9.2,0l-6.3,6.3c-2.5,2.4-4.8,1.9-5.8,1.4
		c-1.2-0.5-1.6-0.9-2.4-1.6c-0.1-0.1-0.2-0.3-0.3-0.4c-2.5-2.5-6.6-2.5-9.2,0L2.6,105.3c-2.5,2.5-2.5,6.6,0,9.2
		c2.5,2.5,6.6,2.5,9.2,0l7.4-7.4c2.5-2.5,6.6-2.5,9.2,0c2.5,2.5,2.5,6.6,0,9.2l-15.5,15.5c-2.5,2.5-2.5,6.6,0,9.2
		c2.5,2.5,6.6,2.5,9.2,0L35.8,127c2.5-2.5,6.6-2.5,9.2,0c2.5,2.5,2.5,6.6,0,9.2l-32.1,32.1c-2.5,2.5-2.5,6.6,0,9.2
		c2.5,2.5,6.6,2.5,9.2,0l26.3-26.3c2.5-2.5,6.6-2.5,9.2,0c2.5,2.5,2.5,6.6,0,9.2l1-1c-2.5,2.5-2.5,6.6,0,9.2c2.5,2.5,6.6,2.5,9.2,0
		l1.8-1.8c2.5-2.5,6.6-2.5,9.2,0c2.5,2.5,2.5,6.6,0,9.2l0.6-0.6c-2.5,2.5-2.5,6.6,0,9.2c2.5,2.5,6.6,2.5,9.2,0l84.8-84.8
		c2.5-2.5,2.5-6.6,0-9.2c-2.5-2.5-6.6-2.5-9.2,0l-2.3,2.3c-2.5,2.5-6.6,2.5-9.2,0c-2.5-2.5-2.5-6.6,0-9.2l15-15
		c2.5-2.5,2.5-6.6,0-9.2c-2.5-2.5-6.6-2.5-9.2,0l-0.7,0.7c-2.3,1.7-4.2,1.3-5.2,0.9c-1.3-0.6-1.7-1-2.6-1.8
		c-0.1-0.1-0.1-0.2-0.2-0.2c-2.5-2.5-6.6-2.5-9.2,0L120,79.5z"/>
	<path class="st0" d="M165.6,14.6c2.5,2.5,2.5,6.6,0,9.2l-40.5,40.5c-2.5,2.5-6.6,2.5-9.2,0l0,0c-2.5-2.5-2.5-6.6,0-9.2l40.5-40.5
		C159,12,163.1,12,165.6,14.6L165.6,14.6z"/>
	<path class="st0" d="M187.6,22c2.5,2.5,2.5,6.6,0,9.2L169,49.8c-2.5,2.5-6.6,2.5-9.2,0l0,0c-2.5-2.5-2.5-6.6,0-9.2L178.4,22
		C181,19.5,185.1,19.5,187.6,22L187.6,22z"/>
	<path class="st0" d="M66.8,23.9c2.5,2.5,2.5,6.6,0,9.2l-32,32c-2.5,2.5-6.6,2.5-9.2,0l0,0c-2.5-2.5-2.5-6.6,0-9.2l32-32
		C60.2,21.4,64.3,21.4,66.8,23.9L66.8,23.9z"/>
	<path class="st0" d="M169.3,121.3c2.5,2.5,2.5,6.6,0,9.2l-32,32c-2.5,2.5-6.6,2.5-9.2,0l0,0c-2.5-2.5-2.5-6.6,0-9.2l32-32
		C162.7,118.8,166.8,118.8,169.3,121.3L169.3,121.3z"/>
	<path class="st0" d="M132.9,2.9c2.6,2.6,2.6,6.9,0,9.5c-2.6,2.6-6.9,2.6-9.5,0c-2.6-2.6-2.6-6.9,0-9.5C126,0.3,130.3,0.3,132.9,2.9
		z"/>
	<path class="st0" d="M177.3,2.5c2.6,2.6,2.6,6.9,0,9.5c-2.6,2.6-6.9,2.6-9.5,0c-2.6-2.6-2.6-6.9,0-9.5
		C170.4-0.2,174.6-0.2,177.3,2.5z"/>
	<path class="st0" d="M124.7,165.3c2.6,2.6,2.6,6.9,0,9.5c-2.6,2.6-6.9,2.6-9.5,0c-2.6-2.6-2.6-6.9,0-9.5
		C117.8,162.7,122.1,162.7,124.7,165.3z"/>
</g>
</svg>
