<?xml version="1.0" encoding="utf-8"?>
<!-- Generator: Adobe Illustrator 17.0.0, SVG Export Plug-In . SVG Version: 6.00 Build 0)  -->
<!DOCTYPE svg PUBLIC "-//W3C//DTD SVG 1.1//EN" "http://www.w3.org/Graphics/SVG/1.1/DTD/svg11.dtd">
<svg version="1.1" x="0px" y="0px" viewBox="0 0 1597.033 249.585" enable-background="new 0 0 1597.033 249.585"
	 preserveAspectRatio="xMidYMin slice">
<path fill="#9BCDC9" d="M-0.633,64c0,0,356,162,769,87c0,0,154-29,250-71c0,0,292-102,465-73c0,0,59,8,123,39v203h-1619V64H-0.633z"
	/>
<path fill="#E2E2E2" d="M-0.633,105c0,0,292,130,699,80c0,0,193.396-28.378,320-82c0,0,289-106,465-90c0,0,59,3,123,34v203h-1619
	V105H-0.633z"/>
<g>
	<image overflow="visible" width="1761" height="436" xlink:href="8FB55FD8.png"  transform="matrix(1 0 0 1 -98.6334 5)">
	</image>
</g>
</svg>
