<?xml version="1.0" encoding="utf-8"?>
<!-- Generator: Adobe Illustrator 22.0.1, SVG Export Plug-In . SVG Version: 6.00 Build 0)  -->
<svg version="1.1" id="Layer_1" xmlns="http://www.w3.org/2000/svg" xmlns:xlink="http://www.w3.org/1999/xlink" x="0px" y="0px"
	 viewBox="0 0 207 147.8" style="enable-background:new 0 0 207 147.8;" xml:space="preserve">
<style type="text/css">
	.st0{fill:#F9F7F7;stroke:#0FB6A5;stroke-width:3;stroke-miterlimit:10;}
	.st1{fill:#186AE0;}
	.st2{fill:none;stroke:#186AE0;stroke-width:2;stroke-miterlimit:10;}
	.st3{fill:none;stroke:#186AE2;stroke-width:3;stroke-miterlimit:10;}
	.st4{fill:#176AE1;}
	.st5{font-family:'Raleway-ExtraBold';}
	.st6{font-size:14px;}
	.st7{fill:none;}
	.st8{fill:#12B4A6;}
	.st9{fill:#FFFFFF;}
	.st10{fill:#D1E1F8;}
	.st11{fill:#D1E1F9;}
</style>
<g>
	<g>
		<path class="st0" d="M9.6,71.2c2.7,3.4,6.2,5.5,9.8,5.9c0,0,0,0,0.1,0c7.6,0.9,16.1,1.5,21.9-5.2c6.5-7.5,7.1-21.1,1.2-29.6
			c-5.5-8-13.1-8.4-21.1-8.4c-1.2,0-3.8,0.6-5,1c-1.2,0.5-3.5,1.9-4.5,2.8c-3.6,3.2-5.9,6-7.5,11.4c-0.8,2.7-1.1,5.5-0.8,8.4
			c0.4,4.8,2.5,9.3,5.5,13.1L9.6,71.2z"/>
	</g>
	<path class="st1" d="M22.1,61.2c1,0,1.8,0.8,1.8,1.9c0,1-0.8,1.9-1.8,1.9s-1.8-0.8-1.8-1.9C20.2,62,21.1,61.2,22.1,61.2z"/>
	<path class="st1" d="M28.5,61.2c1,0,1.8,0.8,1.8,1.9c0,1-0.8,1.9-1.8,1.9s-1.8-0.8-1.8-1.9C26.6,62,27.5,61.2,28.5,61.2z"/>
	<path class="st2" d="M17.1,48.6h16c0,0,1.4,0.1,1,1.6c-0.2,1.3-1.4,5.3-1.4,5.3s-0.1,0.7-1,0.8c-1,0-12.8,0-12.8,0"/>
	<path class="st2" d="M13.6,46.1l2.3,0.9c0,0,0.7,0.1,0.9,0.8c0.1,0.8,2.5,12.6,2.5,12.6h12.5"/>
	<g>
		<path class="st3" d="M63.2,31.9h78.3c5.5,0,10,4.5,10,10v74.7c0,5.5-4.5,10-10,10H63.2c-5.5,0-10-4.5-10-10V41.9
			C53.2,36.4,57.6,31.9,63.2,31.9z"/>
	</g>
	<g>
		<path class="st0" d="M87.1,33.1c1.7,2.2,3.9,3.5,6.2,3.8l0,0c4.8,0.6,10.2,1,13.9-3.3c4.1-4.7,4.5-13.4,0.8-18.8
			c-3.5-5.1-8.3-5.3-13.4-5.3c-0.8,0-2.4,0.4-3.1,0.6c-0.7,0.2-2.1,1.1-2.8,1.7c-2.3,2-3.7,3.8-4.8,7.3c-0.5,1.7-0.7,3.5-0.5,5.4
			c0.3,3,1.6,5.9,3.5,8.3L87.1,33.1z"/>
	</g>
	<text transform="matrix(1 0 0 1 92.5227 27.6973)" class="st4 st5 st6">$</text>
	<path class="st7" d="M83.3,90c0.5,0,1,0.4,1,1l0,0c0,0.5-0.4,1-1,1c-0.5,0-1-0.4-1-1l0,0C82.4,90.4,82.8,90,83.3,90z"/>
	<path class="st2" d="M79.8,91.9c0,0-0.4-3.9,3.1-4.6c1.7-0.3,3.4,0.8,3.9,2.5c0.5,1.8,0.3,4-2.6,5.3v1.3"/>
	<path class="st7" d="M79.1,96.4h8.4"/>
	<path class="st8" d="M76.5,95.7c0,0,1.2,5.9,6.4,5.8c2.1-0.1,5.4-1.5,6.4-5.8c1.8-0.3,12.7,1.3,16.7,9.7l-6.4,6.4l-3.8-2.5
		l-0.6,23.9H70.7l-0.6-23.9c0,0-1.3,0-3.2,2.6l-7.7-6.4C59.2,105.4,66.6,95.3,76.5,95.7z"/>
	<path class="st9" d="M84.3,107.3l-7.1,10.3l3.9,0.6l0.6,6.4l8.4-10.3l-4.5-0.6L84.3,107.3z"/>
	<g>
		<path class="st10" d="M116.1,107.4h21.2c3,0,5.5,2.5,5.5,5.5l0,0c0,3-2.5,5.5-5.5,5.5h-21.2c-3,0-5.5-2.5-5.5-5.5l0,0
			C110.7,109.8,113.1,107.4,116.1,107.4z"/>
	</g>
	<rect x="112.4" y="96.4" class="st10" width="29.4" height="1.9"/>
	<rect x="112.4" y="101.5" class="st10" width="18" height="1.9"/>
	<rect x="62.5" y="79.3" class="st10" width="15.1" height="1.9"/>
	<rect x="111.5" y="91.3" class="st10" width="12.1" height="1.9"/>
	<rect x="117.5" y="79.3" class="st10" width="5.2" height="1.9"/>
	<rect x="127.4" y="79.3" class="st10" width="5.2" height="1.9"/>
	<rect x="137.2" y="79.3" class="st10" width="5.2" height="1.9"/>
	<g>
		<path class="st0" d="M147.9,128.6c4.1,5,9.2,8.1,14.6,8.8h0.1c11.3,1.4,24,2.3,32.7-7.8c9.7-11.1,10.5-31.4,1.9-44
			c-8.2-11.9-19.5-12.5-31.5-12.4c-1.8,0-5.7,0.9-7.4,1.5c-1.8,0.7-5.2,2.8-6.7,4.2c-5.3,4.8-8.7,8.9-11.2,17s-1.7,16.5,2.4,26.4
			L147.9,128.6z"/>
	</g>
	<g>
		<path class="st1" d="M154.1,99.9h11.6c0.5,0,1,0.4,1,1l0,0c0,0.5-0.4,1-1,1h-11.6c-0.5,0-1-0.4-1-1l0,0
			C153.1,100.3,153.5,99.9,154.1,99.9z"/>
		<path class="st1" d="M152.8,103.8h11.6c0.5,0,1,0.4,1,1l0,0c0,0.5-0.4,1-1,1h-11.6c-0.5,0-1-0.4-1-1l0,0
			C151.8,104.2,152.2,103.8,152.8,103.8z"/>
		<path class="st1" d="M151.5,107.6h11.6c0.5,0,1,0.4,1,1c0,0.5-0.4,1-1,1h-11.6c-0.5,0-1-0.4-1-1
			C150.5,108.1,150.9,107.6,151.5,107.6z"/>
		<path class="st2" d="M183.9,112.1c2.1,0,3.9,1.7,3.9,3.9c0,2.1-1.7,3.9-3.9,3.9c-2.1,0-3.9-1.7-3.9-3.9
			C180.1,113.9,181.8,112.1,183.9,112.1z"/>
		<path class="st2" d="M163.9,112.1c2.1,0,3.9,1.7,3.9,3.9c0,2.1-1.7,3.9-3.9,3.9c-2.1,0-3.9-1.7-3.9-3.9
			C160.1,113.9,161.8,112.1,163.9,112.1z"/>
		<path class="st2" d="M181.5,98.9v5.9h5.9v-4.1l-1.8-1.8H181.5z"/>
		<path class="st2" d="M180.1,114.7h-2.6"/>
		<path class="st2" d="M177.5,95.4h8.4l5.8,5.2v14.2h-3.2"/>
		<path class="st2" d="M158.9,114.7H155v-4.5"/>
		<path class="st2" d="M155,99.2v-7.7h22.5v23.2h-9"/>
	</g>
	<g>
		<path class="st11" d="M87.7,40.8h50.1c1.8,0,3.2,1.4,3.2,3.2s-1.4,3.2-3.2,3.2H87.7c-1.8,0-3.2-1.4-3.2-3.2S85.9,40.8,87.7,40.8z"
			/>
		<path class="st11" d="M62.6,40.8L62.6,40.8c1.8,0,3.2,1.4,3.2,3.2l0,0c0,1.8-1.4,3.2-3.2,3.2l0,0c-1.8,0-3.2-1.4-3.2-3.2l0,0
			C59.4,42.3,60.8,40.8,62.6,40.8z"/>
		<path class="st11" d="M71,40.8c1.8,0,3.2,1.4,3.2,3.2l0,0c0,1.8-1.4,3.2-3.2,3.2c-1.8,0-3.2-1.4-3.2-3.2l0,0
			C67.8,42.2,69.2,40.8,71,40.8z"/>
		<path class="st11" d="M79.3,40.8L79.3,40.8c1.8,0,3.2,1.4,3.2,3.2l0,0c0,1.8-1.4,3.2-3.2,3.2l0,0c-1.8,0-3.2-1.4-3.2-3.2l0,0
			C76.1,42.3,77.6,40.8,79.3,40.8z"/>
	</g>
	<g>
		<path class="st11" d="M144,41l2.6,3.2l-2.6,3.2"/>
	</g>
</g>
</svg>
