<?xml version="1.0" encoding="utf-8"?>
<!-- Generator: Adobe Illustrator 22.0.1, SVG Export Plug-In . SVG Version: 6.00 Build 0)  -->
<svg version="1.1" id="Layer_1" xmlns="http://www.w3.org/2000/svg" xmlns:xlink="http://www.w3.org/1999/xlink" x="0px" y="0px"
	 viewBox="0 0 190.7 131.8" style="enable-background:new 0 0 190.7 131.8;" xml:space="preserve">
<style type="text/css">
	.st0{fill-rule:evenodd;clip-rule:evenodd;fill:#FFFFFF;stroke:#0FB5A4;stroke-width:2;stroke-miterlimit:10;}
	.st1{fill-rule:evenodd;clip-rule:evenodd;fill:#176AE1;}
	.st2{fill-rule:evenodd;clip-rule:evenodd;fill:#186AE0;}
	.st3{fill-rule:evenodd;clip-rule:evenodd;fill:none;stroke:#0FB5A5;stroke-width:2;stroke-miterlimit:10;}
	.st4{fill-rule:evenodd;clip-rule:evenodd;fill:#D3E1FA;}
	.st5{fill-rule:evenodd;clip-rule:evenodd;fill:none;}
	.st6{fill-rule:evenodd;clip-rule:evenodd;fill:none;stroke:#186AE2;stroke-width:3;stroke-miterlimit:10;}
	.st7{fill-rule:evenodd;clip-rule:evenodd;fill:#0FB5A5;}
</style>
<g>
	<path class="st0" d="M102,24.8l0.1,7.1c0,0,6.5,8.6,11.5,2.9c0,0,2.8,1.2,6.5-16.1c0.3-1.4,0.8-2.8,0.8-4.3
		c0-6.8-5.5-12.4-12.3-12.4c-4.1,0-10,5.2-10,5.2L84.1,7.3C81.8,4.1,78.2,2,74,2c-6.8,0-12.3,5.5-12.3,12.3c0,1.5,0.5,2.9,0.8,4.3
		c3.6,17.2,6.5,16,6.5,16c5,5.6,11.5-2.9,11.5-2.9l0.1-7L102,24.8z"/>
	<path class="st1" d="M108.6,7.8c1.2,0,2.2,1,2.2,2.2c0,1.2-1,2.2-2.2,2.2c-1.2,0-2.2-1-2.2-2.2C106.4,8.8,107.4,7.8,108.6,7.8z"/>
	<path class="st1" d="M108.6,17.2c1.2,0,2.2,1,2.2,2.2c0,1.2-1,2.2-2.2,2.2c-1.2,0-2.2-1-2.2-2.2C106.4,18.2,107.4,17.2,108.6,17.2z
		"/>
	<path class="st1" d="M104.3,12.9c1.2,0,2.2,1,2.2,2.2s-1,2.2-2.2,2.2c-1.2,0-2.2-1-2.2-2.2S103.1,12.9,104.3,12.9z"/>
	<path class="st1" d="M112.9,12.9c1.2,0,2.2,1,2.2,2.2s-1,2.2-2.2,2.2c-1.2,0-2.2-1-2.2-2.2S111.8,12.9,112.9,12.9z"/>
	<path class="st1" d="M81.2,17.2h-5v4.3h-4.3v-4.3h-4.3v-4.3h4.3V7.8h4.3v5.1h5V17.2z"/>
	<path class="st2" d="M35.1,86l-2.9-1.4v2.9L35.1,86z"/>
	<path class="st2" d="M4.8,86l2.9-1.4v2.9L4.8,86z"/>
	<path class="st2" d="M19.9,101.2l-1.4-2.9h2.9L19.9,101.2z"/>
	<path class="st2" d="M19.9,70l-1.4,2.9h2.9L19.9,70z"/>
	<path class="st3" d="M38,91.8H26.4v12.3H14.2V91.8H1.9V79.4h12.3v-13h12.3v13H38V91.8z"/>
	<path class="st1" d="M32.2,124.3h135.5c1.2,0,2.2,1,2.2,2.2c0,1.2-8.2,4.3-9.4,4.3H39.4c-1.2,0-9.4-3.1-9.4-4.3
		C30,125.3,31,124.3,32.2,124.3z"/>
	<path class="st4" d="M111.5,68.5h4.3v12.3h-4.3V68.5z"/>
	<path class="st4" d="M120.9,76.5h4.3v23.2h-4.3V76.5z"/>
	<path class="st4" d="M120.9,104.7h4.3v5.1h-4.3V104.7z"/>
	<path class="st4" d="M111.5,95.3h4.3v14.5h-4.3V95.3z"/>
	<path class="st4" d="M92.8,76.5h4.3v23.2h-4.3V76.5z"/>
	<path class="st4" d="M102.1,76.5h4.3v9.4h-4.3V76.5z"/>
	<path class="st4" d="M102.1,90.2h4.3v9.4h-4.3V90.2z"/>
	<path class="st4" d="M77.6,104.7h10.8v4.3H77.6V104.7z"/>
	<path class="st4" d="M83.4,67.1h14.4v4.3H83.4V67.1z"/>
	<path class="st4" d="M102.1,67.1h23.8v4.3h-23.8V67.1z"/>
	<path class="st4" d="M92.8,105.4h19.5v4.3H92.8V105.4z"/>
	<path class="st4" d="M94.9,76.5h10.8v4.3H94.9V76.5z"/>
	<path class="st4" d="M93.5,95.3h10.8v4.3H93.5V95.3z"/>
	<path class="st4" d="M111.5,85.9h10.8v4.3h-10.8V85.9z"/>
	<path class="st4" d="M74,95.3h4.3v13.8H74V95.3z"/>
	<path class="st4" d="M83.4,76.5h4.3v23.9h-4.3V76.5z"/>
	<path class="st4" d="M74,85.9h9.4v4.3H74V85.9z"/>
	<path class="st4" d="M73.3,66.4h5v14.5h-5V66.4z"/>
	<path class="st5" d="M69.5,54.8h68.4c1.1,0,2,0.9,2,2c0,1.1-0.9,2-2,2H69.5c-1.1,0-2-0.9-2-2C67.5,55.7,68.4,54.8,69.5,54.8z"/>
	<path class="st5" d="M60.8,54.8h1.8c1.1,0,2,0.9,2,2c0,1.1-0.9,2-2,2h-1.8c-1.1,0-2-0.9-2-2C58.8,55.7,59.7,54.8,60.8,54.8z"/>
	<path class="st5" d="M52.9,54.8h1.8c1.1,0,2,0.9,2,2c0,1.1-0.9,2-2,2h-1.8c-1.1,0-2-0.9-2-2C50.9,55.7,51.8,54.8,52.9,54.8z"/>
	<path class="st6" d="M52.3,46.1h94.6c5.5,0,10,4.5,10,10v56c0,5.5-4.5,10-10,10H52.3c-5.5,0-10-4.5-10-10v-56
		C42.3,50.6,46.8,46.1,52.3,46.1z"/>
	<path class="st0" d="M143.9,33.1h34.1c5.5,0,10,4.5,10,10V89c0,5.5-4.5,10-10,10h-34.1c-5.5,0-10-4.5-10-10V43.1
		C133.9,37.6,138.3,33.1,143.9,33.1z"/>
	<path class="st7" d="M133.8,41.8v-1.4c0-4,3.2-7.2,7.2-7.2h39.7c4,0,7.2,3.2,7.2,7.2v1.4H133.8z"/>
	<path class="st1" d="M141.3,49.1h16.4c0.6,0,1,0.4,1,1v0.1c0,0.6-0.4,1-1,1h-16.4c-0.6,0-1-0.4-1-1v-0.1
		C140.3,49.5,140.8,49.1,141.3,49.1z"/>
	<path class="st1" d="M144.3,73.7h16.4c0.6,0,1,0.4,1,1v0.1c0,0.6-0.4,1-1,1h-16.4c-0.6,0-1-0.4-1-1v-0.1
		C143.3,74.1,143.7,73.7,144.3,73.7z"/>
	<path class="st1" d="M143.3,78.8h16.4c0.6,0,1,0.4,1,1v0.1c0,0.6-0.4,1-1,1h-16.4c-0.6,0-1-0.4-1-1v-0.1
		C142.3,79.3,142.7,78.8,143.3,78.8z"/>
	<path class="st1" d="M157,83.2h2.7c0.6,0,1,0.4,1,1v0.1c0,0.6-0.4,1-1,1H157c-0.6,0-1-0.4-1-1v-0.1C156,83.6,156.4,83.2,157,83.2z"
		/>
	<path class="st1" d="M147.4,54.2h16.4c0.6,0,1,0.4,1,1v0.1c0,0.6-0.4,1-1,1h-16.4c-0.6,0-1-0.4-1-1v-0.1
		C146.4,54.7,146.9,54.2,147.4,54.2z"/>
	<path class="st1" d="M146.3,68.6h16.4c0.6,0,1,0.4,1,1v0.1c0,0.6-0.4,1-1,1h-16.4c-0.6,0-1-0.4-1-1v-0.1
		C145.3,69,145.8,68.6,146.3,68.6z"/>
	<path class="st1" d="M164.7,73.7h16.4c0.6,0,1,0.4,1,1v0.1c0,0.6-0.4,1-1,1h-16.4c-0.6,0-1-0.4-1-1v-0.1
		C163.7,74.1,164.2,73.7,164.7,73.7z"/>
	<path class="st1" d="M162.7,78.8h16.4c0.6,0,1,0.4,1,1v0.1c0,0.6-0.4,1-1,1h-16.4c-0.6,0-1-0.4-1-1v-0.1
		C161.7,79.3,162.1,78.8,162.7,78.8z"/>
	<path class="st1" d="M162.7,83.2h16.4c0.6,0,1,0.4,1,1v0.1c0,0.6-0.4,1-1,1h-16.4c-0.6,0-1-0.4-1-1v-0.1
		C161.7,83.6,162.1,83.2,162.7,83.2z"/>
</g>
</svg>
