<?xml version="1.0" encoding="utf-8"?>
<!-- Generator: Adobe Illustrator 22.0.1, SVG Export Plug-In . SVG Version: 6.00 Build 0)  -->
<svg version="1.1" id="Layer_1" xmlns="http://www.w3.org/2000/svg" xmlns:xlink="http://www.w3.org/1999/xlink" x="0px" y="0px"
	 viewBox="0 0 152 147.8" style="enable-background:new 0 0 152 147.8;" xml:space="preserve">
<style type="text/css">
	.st0{fill-rule:evenodd;clip-rule:evenodd;fill:none;stroke:#186AE2;stroke-width:3;stroke-miterlimit:10;}
	.st1{fill-rule:evenodd;clip-rule:evenodd;fill:#D1E1F9;}
	.st2{fill-rule:evenodd;clip-rule:evenodd;fill:#D1E0F9;}
	.st3{fill-rule:evenodd;clip-rule:evenodd;fill:#FFFFFF;stroke:#0FB5A4;stroke-width:2;stroke-miterlimit:10;}
	.st4{fill:none;stroke:#186AE2;stroke-width:3;stroke-miterlimit:10;}
	.st5{fill-rule:evenodd;clip-rule:evenodd;fill:#0FB6A4;}
	.st6{fill-rule:evenodd;clip-rule:evenodd;fill:#176AE1;}
</style>
<g>
	<path class="st0" d="M42.3,3.9h65.4c5.5,0,10,4.5,10,10v122c0,5.5-4.5,10-10,10H42.3c-5.5,0-10-4.5-10-10v-122
		C32.3,8.3,36.7,3.9,42.3,3.9z"/>
</g>
<g>
	<path class="st1" d="M66.5,11.1h18.3c0.7,0,1.3,0.6,1.3,1.3c0,0.7-0.6,1.3-1.3,1.3H66.5c-0.7,0-1.3-0.6-1.3-1.3
		C65.1,11.7,65.7,11.1,66.5,11.1z"/>
</g>
<g>
	<path class="st2" d="M53.9,37.6L53.9,37.6c4.9,0,8.9,4,8.9,8.9v1.1c0,4.9-4,8.9-8.9,8.9h0c-4.9,0-8.9-4-8.9-8.9v-1.1
		C45,41.6,49,37.6,53.9,37.6z"/>
	<path class="st2" d="M77.6,38.2c4.9,0,8.9,4,8.9,8.9v1.1c0,4.9-4,8.9-8.9,8.9s-8.9-4-8.9-8.9V47C68.7,42.1,72.7,38.2,77.6,38.2z"/>
	<path class="st2" d="M100.7,38.2L100.7,38.2c4.9,0,8.9,4,8.9,8.9v1.1c0,4.9-4,8.9-8.9,8.9h0c-4.9,0-8.9-4-8.9-8.9V47
		C91.8,42.1,95.8,38.2,100.7,38.2z"/>
	<path class="st2" d="M77.6,60.8c4.9,0,8.9,4,8.9,8.9v1.1c0,4.9-4,8.9-8.9,8.9s-8.9-4-8.9-8.9v-1.1C68.7,64.7,72.7,60.8,77.6,60.8z"
		/>
	<path class="st2" d="M100.7,60.8L100.7,60.8c4.9,0,8.9,4,8.9,8.9v1.1c0,4.9-4,8.9-8.9,8.9h0c-4.9,0-8.9-4-8.9-8.9v-1.1
		C91.8,64.7,95.8,60.8,100.7,60.8z"/>
	<path class="st2" d="M54.5,60.8c4.9,0,8.9,4,8.9,8.9v1.1c0,4.9-4,8.9-8.9,8.9c-4.9,0-8.9-4-8.9-8.9v-1.1
		C45.6,64.7,49.6,60.8,54.5,60.8z"/>
</g>
<g>
	<g>
		<path class="st3" d="M10.3,15.2h49.4c3,0,5.4,2.4,5.4,5.4v28.5c0,3-2.4,5.4-5.4,5.4h-7.3L56.5,70L39.7,54.4H10.3
			c-3,0-5.4-2.4-5.4-5.4V20.5C5,17.6,7.4,15.2,10.3,15.2z"/>
	</g>
	<line class="st4" x1="9.8" y1="23.6" x2="58.5" y2="23.6"/>
	<line class="st4" x1="9.8" y1="30.6" x2="58.5" y2="30.6"/>
	<line class="st4" x1="9.8" y1="37.6" x2="58.5" y2="37.6"/>
	<line class="st4" x1="9.8" y1="44.6" x2="38" y2="44.6"/>
</g>
<g>
	<path class="st1" d="M52.3,86h46.6c5.5,0,10,4.5,10,10v11.7c0,5.5-4.5,10-10,10H52.3c-5.5,0-10-4.5-10-10V96
		C42.3,90.5,46.8,86,52.3,86z"/>
</g>
<g>
	<path class="st1" d="M70.7,130.5h8.6c1.5,0,2.7,1.2,2.7,2.7v0c0,1.5-1.2,2.7-2.7,2.7h-8.6c-1.5,0-2.7-1.2-2.7-2.7v0
		C68,131.7,69.2,130.5,70.7,130.5z"/>
</g>
<path class="st3" d="M94.8,20.4h47.8c3.7,0,6.7,3,6.7,6.7v0c0,3.7-3,6.7-6.7,6.7H94.8c-3.7,0-6.7-3-6.7-6.7v0
	C88,23.5,91,20.4,94.8,20.4z"/>
<path class="st5" d="M143.9,33.9h-5.4V20.5h5.4c3,0,5.4,2.4,5.4,5.4v2.7C149.3,31.5,146.9,33.9,143.9,33.9z"/>
<path class="st3" d="M96.4,49.2h42.5v57.6H96.4V49.2z"/>
<g>
	<path class="st6" d="M113.6,92.2h9.1c1.8,0,3.2,1.4,3.2,3.2v0c0,1.8-1.4,3.2-3.2,3.2h-9.1c-1.8,0-3.2-1.4-3.2-3.2v0
		C110.3,93.7,111.8,92.2,113.6,92.2z"/>
	<path class="st6" d="M103.5,72.5h28c1.1,0,2,0.9,2,2c0,1.1-0.9,2-2,2h-28c-1.1,0-2-0.9-2-2C101.5,73.4,102.4,72.5,103.5,72.5z"/>
	<path class="st6" d="M103.5,80.5h28c1.1,0,2,0.9,2,2c0,1.1-0.9,2-2,2h-28c-1.1,0-2-0.9-2-2C101.5,81.4,102.4,80.5,103.5,80.5z"/>
	<path class="st6" d="M112.5,67.5c0,0,1.3-3.4,2.4-3.9c1.3,0.6,3.1,0.6,3.1,0.6s1.7-0.2,2.4-0.6c0.8-0.5,3.1,3.9,3.1,3.9H112.5z"/>
	<path class="st6" d="M118,56.5c1.7,0,3.1,1.4,3.1,3.2c0,1.8-1.4,3.2-3.1,3.2c-1.7,0-3.1-1.4-3.1-3.2
		C114.9,57.9,116.3,56.5,118,56.5z"/>
</g>
</svg>
